<?xml version="1.0" encoding="iso-8859-1"?>
<!-- Generator: Adobe Illustrator 19.0.0, SVG Export Plug-In . SVG Version: 6.00 Build 0)  -->
<svg version="1.1" id="Layer_1" xmlns="http://www.w3.org/2000/svg" xmlns:xlink="http://www.w3.org/1999/xlink" x="0px" y="0px"
	 viewBox="0 0 512 512" style="enable-background:new 0 0 512 512;" xml:space="preserve">
<path style="fill:#ED7149;" d="M503.045,511.973H8.307l0,0c0-106.058,85.977-192.033,192.034-192.033h110.67
	C417.068,319.94,503.045,405.915,503.045,511.973L503.045,511.973z"/>
<path style="fill:#E94E1B;" d="M311.011,319.94c106.058,0,192.034,85.976,192.034,192.033l0,0H256.077l0.273-192.034h54.66V319.94z"
	/>
<g>
	<rect x="112.326" y="335.943" style="fill:#F9B233;" width="32.458" height="176.034"/>
	<rect x="368.372" y="335.943" style="fill:#F9B233;" width="32.458" height="176.034"/>
</g>
<path style="fill:#CBBBA0;" d="M392.375,135.907h-31.099c-27.119,0-49.103-21.985-49.103-49.103V56.098
	c0-22.208,18.004-40.213,40.213-40.213h1.38c21.322,0,38.608,17.286,38.608,38.608V135.907z"/>
<path style="fill:#988C78;" d="M312.361,15.885h-0.188v73.041c0,25.946,21.034,46.981,46.981,46.981h33.222v-24.005H360.37
	C360.369,111.902,311.889,116.764,312.361,15.885z"/>
<path style="fill:#CBBBA0;" d="M209.674,135.907h-97.827V97.344c0-49.408,40.052-89.46,89.46-89.46H312.36v25.336
	C312.361,89.932,266.386,135.907,209.674,135.907z"/>
<path style="fill:#988C78;" d="M312.361,7.884v26.132c0,56.273-45.618,101.891-101.891,101.891h-98.624v-26.132h96.496
	C208.343,109.774,299.117,119.958,312.361,7.884"/>
<path style="fill:#F3D1BB;" d="M359.153,135.907c-14.063,0-26.648-6.212-35.257-16.004h-58.758
	c-15.807,10.082-34.528,16.004-54.666,16.004H136.33v200.035c0,66.286,53.735,120.022,120.022,120.022
	s120.022-53.736,120.022-120.022V135.907H359.153z"/>
<path style="fill:#E8C0A8;" d="M384.374,175.913c13.257,0,24.004,10.748,24.004,24.004c0,13.257-10.747,24.004-24.004,24.004"/>
<path style="fill:#F3D1BB;" d="M128.328,223.921c-13.257,0-24.004-10.747-24.004-24.004s10.747-24.004,24.004-24.004"/>
<path style="fill:#E8C0A8;" d="M359.153,135.804c-25.946,0-46.979-13.958-46.979-39.904v-40.11h-2.227
	c-6.624,30.242-26.675,55.393-53.594,69.01v331.164c66.287,0,120.022-53.736,120.022-120.022V135.804H359.153z"/>
<path style="fill:#CBBBA0;" d="M376.372,335.942c0,66.287-53.736,120.022-120.022,120.022S136.33,402.228,136.33,335.942v-24.004
	c0,0,37.007,19.003,72.013,0h96.017c0,0,38.007,17.003,72.013,0v24.004H376.372z"/>
<path style="fill:#988C78;" d="M256.351,455.963c66.286,0,120.022-53.735,120.022-120.022v-24.004c-34.006,17.003-72.013,0-72.013,0
	S319.362,436.959,256.351,455.963"/>
<g>
	<rect x="200.464" y="183.917" style="fill:#1D1D1B;" width="15.767" height="48.009"/>
	<rect x="296.475" y="183.917" style="fill:#1D1D1B;" width="15.767" height="48.009"/>
</g>
<g>
	<rect x="183.635" y="176.034" style="fill:#CBBBA0;" width="40.006" height="15.767"/>
	<rect x="287.656" y="176.034" style="fill:#CBBBA0;" width="40.006" height="15.767"/>
</g>
<g>
	<rect x="248.354" y="472.086" style="fill:#1D1D1B;" width="16.004" height="15.767"/>
	<rect x="248.354" y="496.084" style="fill:#1D1D1B;" width="16.004" height="15.767"/>
</g>
<g>
	<path style="fill:#988C78;" d="M320.363,335.942c-8.838,0-16.004-7.165-16.004-16.002v-8.001c0-13.257-10.747-24.004-24.004-24.004
		s-24.004,10.747-24.004,24.004s10.747,24.004,24.004,24.004H320.363"/>
	<path style="fill:#988C78;" d="M192.34,335.942c8.838,0,16.004-7.165,16.004-16.002v-8.001c0-13.257,10.747-24.004,24.004-24.004
		s24.004,10.747,24.004,24.004s-10.747,24.004-24.004,24.004H192.34"/>
</g>
<g>
	<path style="fill:#1D1D1B;" d="M384.256,322.175V231.79c17.314-0.312,31.306-14.485,31.306-31.873s-13.992-31.56-31.306-31.873
		V143.79h16.002V54.156c0-25.449-20.704-46.153-46.153-46.153c-13.066,0-24.966,5.063-33.86,13.322v-8.232
		C320.245,5.873,314.372,0,307.153,0H198.689c-52.232,0-94.727,42.494-94.727,94.727v49.063h24.51l0.085,24.24h-0.929
		c-17.583,0-31.887,14.305-31.887,31.887s14.305,31.887,31.887,31.887h1.152l0.315,90.153
		C50.749,347.743,0.423,421.729,0.423,511.973H16.19c0-71.172,33.685-131.309,88.287-162.028l0.412,162.049l15.767-0.04
		l-0.432-169.793c2.935-1.261,5.919-2.446,8.954-3.549c0.281,13.972,2.76,27.566,7.279,40.377L136.895,512l15.767-0.053
		l-0.336-102.191c4.125,5.865,8.768,11.422,13.91,16.606c23.979,24.173,55.981,37.486,90.115,37.486
		c42.893,0,80.92-21.225,104.136-53.72v101.847h15.767V380.472c4.848-13.01,7.637-27.014,7.964-41.616
		c2.793,1.028,5.544,2.133,8.258,3.298l-0.432,169.797l15.767,0.04l0.412-162.054c21.833,12.293,40.512,29.442,55.01,50.726
		c21.312,31.284,32.577,69.773,32.577,111.307h15.767C511.579,421.863,461.806,348.043,384.256,322.175z M399.795,199.918
		c0,8.693-6.921,15.782-15.539,16.092v-32.183C392.874,184.136,399.795,191.225,399.795,199.918z M354.105,23.768
		c16.755,0,30.386,13.631,30.386,30.386v73.868H360.08c-22.07,0-40.024-17.956-40.024-40.024v-30.18
		C320.056,39.043,335.331,23.768,354.105,23.768z M119.73,94.727c0-43.539,35.421-78.96,78.96-78.96h105.787v19.757
		c0,51.003-41.495,92.499-92.499,92.499H119.73C119.73,128.023,119.73,94.727,119.73,94.727z M211.979,143.79
		c39.099,0,73.422-20.836,92.455-51.985c1.966,28.993,26.165,51.985,55.647,51.985h8.409v155.75
		c-30.739,17.652-58.381-1.205-59.586-2.047l-0.078,0.109c-5.258-10.401-16.041-17.553-28.47-17.553
		c-0.521,0-1.039,0.015-1.555,0.04c0.928-2.547,1.436-5.295,1.436-8.159v-8.001h-15.767v8.001c0,4.477-3.642,8.119-8.119,8.119
		c-4.477,0-8.119-3.642-8.119-8.119v-8.001h-15.767v8.001c0,2.864,0.508,5.612,1.436,8.159c-0.515-0.025-1.033-0.04-1.555-0.04
		c-12.338,0-23.055,7.049-28.354,17.326l-0.006-0.011c-25.744,17.069-49.955,7.424-59.2,2.469l-0.546-156.045h67.738V143.79z
		 M248.467,311.937c0,8.889-7.232,16.12-16.12,16.12h-17.541c0.92-2.535,1.421-5.27,1.421-8.119v-8.001
		c0-8.889,7.232-16.12,16.12-16.12S248.467,303.049,248.467,311.937z M280.355,295.817c8.889,0,16.12,7.232,16.12,16.12v8.001
		c0,2.849,0.501,5.584,1.421,8.119h-17.541c-8.889,0-16.12-7.232-16.12-16.12S271.466,295.817,280.355,295.817z M127.629,216.038
		c-8.889,0-16.12-7.232-16.12-16.12c0-8.888,7.232-16.12,16.12-16.12h0.984l0.112,32.242h-1.096V216.038z M256.351,448.079
		c-29.897,0-57.926-11.656-78.921-32.822c-11.203-11.293-19.714-24.594-25.215-39.114l-0.081-0.221
		c-4.742-12.595-7.222-26.101-7.222-40.009l-0.065-18.696c7.222,2.927,16.995,5.676,28.255,5.676c8.439,0,17.711-1.557,27.357-5.729
		v2.772c0,4.477-3.642,8.119-8.12,8.119v15.767h40.007c9.565,0,18.154-4.239,24.004-10.932c5.85,6.693,14.438,10.932,24.004,10.932
		h40.007v-15.767c-4.477,0-8.12-3.642-8.12-8.119v-2.978c7.279,3.022,17.3,5.935,28.889,5.935c8.439,0,17.711-1.557,27.357-5.729
		v18.774c0,14.088-2.619,27.574-7.383,40.007l-0.618,1.585C343.933,418.834,303.495,448.079,256.351,448.079z"/>
	<rect x="240.344" y="352.068" style="fill:#1D1D1B;" width="32.005" height="15.767"/>
</g>
<g>
</g>
<g>
</g>
<g>
</g>
<g>
</g>
<g>
</g>
<g>
</g>
<g>
</g>
<g>
</g>
<g>
</g>
<g>
</g>
<g>
</g>
<g>
</g>
<g>
</g>
<g>
</g>
<g>
</g>
</svg>
